<svg xmlns="http://www.w3.org/2000/svg" width="1280" height="455" fill="none" style=""><rect id="backgroundrect" width="100%" height="100%" x="0" y="0" fill="none" stroke="none"/>


<g class="currentLayer" style=""><title>Layer 1</title><path fill-rule="evenodd" clip-rule="evenodd" d="M0,54.13377L26.49103,54.21667C58.77894,49.0884 106.667,42.6965 160,84.7427C213.333,126.789 266.667,222.894 320,252.927C373.333,282.96 426.667,246.921 480,210.881C533.333,174.842 586.667,138.802 640,156.822C693.333,174.842 746.667,246.921 800,240.914C853.333,234.908 906.667,150.815 960,90.7493C1013.33,30.6833 1066.67,-5.35631 1120,0.65029C1173.33,6.65688 1221.87627,22.00722 1239.4157,38.31838C1246.50272,44.23594 1261.84603,52.43715 1280.17566,54.49007L1280,319L1253.33,319C1226.67,319 1173.33,319 1120,319C1066.67,319 1013.33,319 960,319C906.667,319 853.333,319 800,319C746.667,319 693.333,319 640,319C586.667,319 533.333,319 480,319C426.667,319 373.333,319 320,319C266.667,319 213.333,319 160,319C106.667,319 53.3333,319 26.6667,319L0,319L0,54.13377z" fill="#F2F2F2" id="svg_1" class="selected"/><rect y="284" width="1280" height="171" rx="10" fill="#F2F2F2" id="svg_2"/></g></svg>