<svg width="1280" height="455" viewBox="0 0 1280 455" fill="none" xmlns="http://www.w3.org/2000/svg">
<path fill-rule="evenodd" clip-rule="evenodd" d="M0 66.7229L26.6667 60.7163C53.3333 54.7097 106.667 42.6965 160 84.7427C213.333 126.789 266.667 222.894 320 252.927C373.333 282.96 426.667 246.921 480 210.881C533.333 174.842 586.667 138.802 640 156.822C693.333 174.842 746.667 246.921 800 240.914C853.333 234.908 906.667 150.815 960 90.7493C1013.33 30.6833 1066.67 -5.35631 1120 0.650287C1173.33 6.65688 1226.67 54.7097 1253.33 78.7361L1280 102.762V319H1253.33C1226.67 319 1173.33 319 1120 319C1066.67 319 1013.33 319 960 319C906.667 319 853.333 319 800 319C746.667 319 693.333 319 640 319C586.667 319 533.333 319 480 319C426.667 319 373.333 319 320 319C266.667 319 213.333 319 160 319C106.667 319 53.3333 319 26.6667 319H0V66.7229Z" fill="#F2F2F2"/>
<rect y="284" width="1280" height="171" rx="10" fill="#F2F2F2"/>
</svg>
